<?xml version="1.0" encoding="utf-8"?>
<svg version="1.1" id="Capa_1" xmlns="http://www.w3.org/2000/svg" xmlns:xlink="http://www.w3.org/1999/xlink" x="0px" y="0px"
	 viewBox="0 0 100 100" style="enable-background:new 0 0 100 100;" xml:space="preserve">
<style type="text/css">
	.st0{fill:#FFFFFF;}
</style>
<g>
	<polygon class="st0" points="97,50.88 88.9,58.6 93.44,68.83 82.99,72.84 83.27,84.03 72.08,83.76 68.06,94.2 57.84,89.66 
		50.12,97.76 42.4,89.66 32.17,94.2 28.16,83.75 16.97,84.03 17.25,72.84 6.8,68.83 11.34,58.6 3.24,50.88 11.34,43.16 6.8,32.93 
		17.25,28.92 16.97,17.73 28.16,18 32.17,7.56 42.4,12.1 50.12,4 57.84,12.1 68.06,7.56 72.08,18.01 83.27,17.73 82.99,28.92 
		93.44,32.94 88.9,43.16 	"/>
</g>
</svg>
